<svg xmlns="http://www.w3.org/2000/svg" width="2059" height="1794" viewBox="0 0 2059 1794" version="1.1"><path d="M 257.500 31.985 C 241.308 33.859, 226.455 38.920, 212.991 47.150 C 201.582 54.124, 185.301 70.524, 178.608 81.785 C 164.651 105.267, 160.710 129.796, 166.005 160.220 C 167.318 167.766, 168.144 174.189, 167.841 174.492 C 167.537 174.796, 161.036 174.309, 153.394 173.411 C 144.287 172.340, 136.191 171.986, 129.896 172.384 C 104.849 173.967, 80.481 184.861, 62.886 202.341 C 11.129 253.764, 25.623 339.832, 91.294 371.033 C 105.630 377.844, 115.453 380.182, 132.106 380.745 C 152.549 381.437, 165.926 378.612, 183.367 369.920 C 194.061 364.590, 199.718 360.345, 211.715 348.648 L 221.930 338.689 231.215 347.258 C 236.322 351.971, 288.875 401.251, 348 456.769 C 407.125 512.287, 455.592 557.647, 455.704 557.568 C 455.816 557.490, 457.281 550.918, 458.961 542.963 C 467.955 500.360, 483.849 456.594, 506.262 412.716 L 516.368 392.932 511.668 388.716 C 509.083 386.397, 467.667 347.606, 419.633 302.513 L 332.298 220.525 340.607 211.513 C 355.285 195.592, 362.206 184.443, 367.311 168.500 C 371.491 155.443, 372.418 149.252, 372.323 135 C 372.222 119.866, 369.970 108.995, 363.927 94.480 C 353.800 70.152, 330.498 47.901, 305.242 38.441 C 289.937 32.709, 272.095 30.296, 257.500 31.985 M 1779.500 37.077 C 1743.575 41.974, 1713.404 63.597, 1697.982 95.500 C 1683.820 124.796, 1683.637 156.376, 1697.460 185.500 C 1703.002 197.178, 1707.806 204.057, 1718.538 215.682 L 1727.291 225.163 1724.896 227.439 C 1723.578 228.690, 1684.700 264.712, 1638.500 307.488 C 1592.300 350.264, 1552.847 386.891, 1550.826 388.882 L 1547.153 392.500 1551.623 400 C 1576.910 442.428, 1600.230 500.835, 1608.518 542.500 C 1609.503 547.450, 1610.591 551.830, 1610.937 552.232 C 1611.282 552.635, 1658.125 509.724, 1715.032 456.874 C 1771.940 404.024, 1822.679 356.936, 1827.787 352.234 L 1837.075 343.685 1846.287 353.151 C 1856.732 363.883, 1865.177 370.217, 1876.610 375.893 C 1910.026 392.485, 1950.060 390.017, 1981.095 369.453 C 1996.661 359.139, 2011.873 340.907, 2019.118 323.882 C 2025.240 309.495, 2027.273 299.181, 2027.273 282.500 C 2027.273 265.844, 2025.290 255.763, 2019.079 240.844 C 2010.455 220.128, 1992.439 200.765, 1971.700 189.924 C 1951.065 179.137, 1932.227 176.175, 1903.378 179.183 C 1897.137 179.833, 1891.838 180.171, 1891.602 179.933 C 1891.365 179.695, 1892.054 174.775, 1893.133 169 C 1896.303 152.032, 1897.084 141.953, 1896.021 131.747 C 1894.169 113.982, 1888.534 97.699, 1879.411 83.748 C 1872.713 73.505, 1856.319 57.643, 1846.193 51.608 C 1826.507 39.876, 1800.516 34.213, 1779.500 37.077 M 488.395 733.750 C 488.700 735.263, 489.631 740.550, 490.463 745.500 C 499.127 797.006, 520.838 861.753, 546.897 913.795 C 618.388 1056.566, 734.128 1149.078, 884.500 1183.645 C 951.869 1199.131, 1032.086 1203.198, 1106.498 1194.901 C 1221.050 1182.128, 1319.001 1140.405, 1397.500 1070.946 C 1478.548 999.232, 1539.665 895.992, 1570.923 778 C 1573.653 767.694, 1578.717 744.679, 1580.440 734.750 L 1581.091 731 1034.466 731 L 487.841 731 488.395 733.750 M 788.870 762.472 C 724.009 773.081, 675.473 823.491, 667.939 888.072 C 659.022 964.512, 715.386 1043.579, 790.308 1059.728 C 801.689 1062.182, 828.162 1062.145, 840 1059.660 C 902.441 1046.551, 953.976 994.690, 964.493 934.378 C 966.459 923.104, 966.440 900.790, 964.454 889.381 C 961.140 870.339, 951.468 847.785, 939.312 830.753 C 932.493 821.199, 916.194 803.909, 907.562 797.072 C 886.743 780.582, 862.827 768.995, 839.199 763.949 C 826.422 761.221, 801.067 760.477, 788.870 762.472 M 1237.252 764.070 C 1219 765.835, 1200.493 771.224, 1183.591 779.696 C 1155.105 793.975, 1129.924 819.498, 1117.133 847.056 C 1108.669 865.291, 1105.119 880.217, 1104.278 901.109 C 1101.698 965.196, 1129.603 1015.866, 1181.891 1042.042 C 1214.076 1058.155, 1259.770 1063.939, 1292.578 1056.054 C 1344.451 1043.587, 1385.486 998.224, 1398.011 939.500 C 1401.039 925.306, 1401.842 898.175, 1399.645 884.304 C 1397.415 870.224, 1392.861 856.564, 1385.858 842.943 C 1358.259 789.269, 1299.450 758.056, 1237.252 764.070 M 1021 1055.630 C 1015.569 1056.671, 1008.174 1059.415, 1001.572 1062.840 C 992.225 1067.690, 984.761 1075.160, 980.745 1083.685 C 977.967 1089.583, 977.535 1091.576, 977.535 1098.500 C 977.535 1105.431, 977.966 1107.415, 980.760 1113.347 C 986.863 1126.303, 1000.814 1136.638, 1017.500 1140.567 C 1027.331 1142.882, 1043.379 1142.686, 1053.154 1140.131 C 1072.028 1135.199, 1085.431 1123.786, 1090.131 1108.645 C 1096.641 1087.671, 1083.191 1067.487, 1056.275 1057.840 C 1051.762 1056.222, 1047.550 1055.702, 1037 1055.461 C 1029.575 1055.290, 1022.375 1055.367, 1021 1055.630 M 742.624 1172.992 C 732.207 1188.733, 718.406 1222.735, 711.571 1249.500 C 710.956 1251.910, 745.577 1272.697, 771.500 1285.481 C 792.120 1295.651, 829.827 1311.397, 837.865 1313.195 C 838.911 1313.429, 840.377 1306.715, 844.133 1284.500 C 848.487 1258.740, 856.164 1218.352, 857.565 1213.833 C 857.973 1212.516, 856.864 1211.827, 852.291 1210.555 C 824.159 1202.732, 785.633 1188.274, 760.246 1176.012 C 752.261 1172.156, 745.624 1169, 745.497 1169 C 745.370 1169, 744.077 1170.796, 742.624 1172.992 M 1302 1176.620 C 1277.807 1187.876, 1226.760 1206.117, 1201.260 1212.619 C 1192.518 1214.848, 1190.117 1215.820, 1190.460 1216.993 C 1192.571 1224.219, 1208 1312.767, 1208 1317.658 C 1208 1318.881, 1208.436 1320.152, 1208.970 1320.481 C 1210.166 1321.221, 1239.282 1311.731, 1259.500 1304.011 C 1281.841 1295.481, 1299.088 1287.971, 1322.750 1276.471 C 1340.326 1267.928, 1344 1265.781, 1344 1264.056 C 1344 1260.907, 1331.032 1222.529, 1324.204 1205.471 C 1318.214 1190.509, 1310.414 1172.941, 1309.815 1173.065 C 1309.642 1173.101, 1306.125 1174.701, 1302 1176.620 M 1349.668 1178.750 C 1361.025 1204.275, 1374.730 1247.527, 1382.859 1283.500 C 1392.966 1328.224, 1398.453 1372.637, 1399.680 1419.651 L 1400.310 1443.802 1471.032 1510.108 L 1541.754 1576.413 1534.054 1585 C 1518.497 1602.351, 1510.792 1616.985, 1506.412 1637.500 C 1500.078 1667.170, 1508.132 1699.744, 1527.814 1724.059 C 1549.802 1751.222, 1586.944 1766.459, 1620.500 1762.084 C 1646.086 1758.747, 1666.566 1748.490, 1684.232 1730.164 C 1709.022 1704.449, 1717.785 1672.406, 1710.752 1633.196 C 1709.439 1625.879, 1708.621 1619.752, 1708.933 1619.581 C 1709.245 1619.409, 1714.450 1619.862, 1720.500 1620.587 C 1743.225 1623.308, 1758.791 1621.905, 1776.640 1615.526 C 1814.143 1602.121, 1841.555 1566.565, 1844.840 1527.060 C 1848.088 1488.010, 1830.740 1451.984, 1798.122 1430.042 C 1772.816 1413.019, 1737.963 1408.338, 1708.777 1418.043 C 1690.222 1424.213, 1679.550 1431.114, 1663.982 1447.010 L 1652.464 1458.771 1500.119 1315.886 C 1416.330 1237.298, 1347.625 1173, 1347.442 1173 C 1347.260 1173, 1348.261 1175.588, 1349.668 1178.750 M 551.044 1317.100 L 400.587 1456.885 395.108 1450.692 C 373.412 1426.172, 352.115 1414.487, 322.577 1410.895 C 306.552 1408.947, 287.693 1411.907, 270.480 1419.073 C 246.742 1428.955, 224.254 1452.160, 214.894 1476.432 C 201.840 1510.282, 206.828 1548.440, 228.048 1577.065 C 242.021 1595.914, 263.358 1610.337, 285.737 1616.061 C 299.918 1619.688, 310.168 1620.281, 327.552 1618.479 C 336.153 1617.587, 343.400 1617.067, 343.656 1617.323 C 343.913 1617.579, 343.158 1622.674, 341.980 1628.644 C 339.224 1642.609, 338.339 1661.585, 339.969 1671.761 C 346.688 1713.697, 376.671 1746.810, 417.794 1757.710 C 426.035 1759.895, 429.764 1760.297, 442.500 1760.376 C 458.589 1760.477, 463.931 1759.655, 477.795 1754.950 C 510.359 1743.897, 535.530 1716.523, 544.763 1682.119 C 547.031 1673.672, 547.345 1670.551, 547.345 1656.500 C 547.345 1642.317, 547.041 1639.364, 544.672 1630.500 C 539.941 1612.806, 532.511 1599.431, 518.750 1583.839 C 514.370 1578.875, 511.171 1574.465, 511.643 1574.038 C 512.114 1573.611, 544.675 1543.434, 584 1506.977 L 655.500 1440.692 656.134 1412.596 C 657.119 1368.893, 660.050 1336.712, 666.571 1298 C 673.006 1259.793, 685.701 1214.592, 697.572 1187.618 C 699.989 1182.126, 701.861 1177.561, 701.733 1177.474 C 701.605 1177.386, 633.795 1240.218, 551.044 1317.100 M 884.598 1221.659 C 884.268 1223.222, 880.853 1244.300, 877.010 1268.500 C 873.167 1292.700, 869.636 1314.864, 869.163 1317.753 L 868.303 1323.005 874.901 1324.970 C 911.565 1335.887, 968.864 1345.021, 1008 1346.187 L 1018.500 1346.500 1018.758 1290.905 L 1019.017 1235.311 1002.402 1234.630 C 981.537 1233.775, 959.513 1231.689, 937 1228.437 C 921.771 1226.237, 893.759 1221.139, 887.349 1219.402 C 885.594 1218.926, 885.088 1219.340, 884.598 1221.659 M 1151 1224.089 C 1127.149 1228.909, 1089.707 1233.293, 1061.250 1234.598 L 1046 1235.297 1046 1291.247 L 1046 1347.197 1057.750 1346.539 C 1088.173 1344.835, 1108.489 1342.676, 1134 1338.437 C 1151.959 1335.452, 1177.194 1330.053, 1178.397 1328.938 C 1179.368 1328.038, 1179.259 1327.258, 1169.433 1264.249 C 1165.895 1241.560, 1163 1222.773, 1163 1222.499 C 1163 1221.767, 1161.503 1221.966, 1151 1224.089 M 703.617 1282.750 C 700.740 1292.467, 691.049 1357.024, 691.009 1366.735 C 690.993 1370.666, 737.676 1400.371, 772.370 1418.506 C 785.660 1425.453, 820.062 1441.387, 820.458 1440.778 C 820.557 1440.625, 823.692 1419.125, 827.424 1393 C 831.156 1366.875, 834.275 1345.144, 834.355 1344.709 C 834.435 1344.274, 828.650 1341.761, 821.500 1339.125 C 785.213 1325.747, 748.355 1307.788, 715.223 1287.342 C 709.571 1283.854, 704.764 1281, 704.541 1281 C 704.317 1281, 703.902 1281.787, 703.617 1282.750 M 1339.500 1300.690 C 1309.886 1315.732, 1262.845 1333.968, 1226.500 1344.496 C 1219.350 1346.567, 1213.382 1348.358, 1213.238 1348.475 C 1213.095 1348.593, 1215.899 1369.347, 1219.471 1394.595 C 1223.043 1419.843, 1226.226 1442.412, 1226.544 1444.750 C 1226.862 1447.088, 1227.447 1449, 1227.843 1449 C 1228.239 1449, 1234.849 1446.578, 1242.531 1443.617 C 1282.419 1428.245, 1319.723 1409.386, 1351.750 1388.404 C 1365.973 1379.085, 1366 1379.060, 1366 1375.242 C 1366 1360.968, 1354.153 1294.934, 1351.613 1295.052 C 1351.001 1295.080, 1345.550 1297.617, 1339.500 1300.690 M 863.536 1355.193 C 861.168 1365.496, 849.928 1451.272, 850.832 1452.144 C 852.062 1453.330, 879.624 1461.929, 895.146 1465.969 C 932.414 1475.669, 974.734 1482.070, 1009 1483.190 L 1018.500 1483.500 1018.759 1429.323 L 1019.017 1375.146 1013.759 1374.615 C 1010.866 1374.323, 1001.666 1373.845, 993.313 1373.552 C 959.350 1372.361, 917.172 1366.265, 881.500 1357.393 C 873.800 1355.478, 866.727 1353.681, 865.783 1353.399 C 864.587 1353.042, 863.906 1353.586, 863.536 1355.193 M 1169 1359.074 C 1136.596 1366.425, 1078.039 1373.936, 1052.750 1373.987 L 1046 1374 1046 1429.050 L 1046 1484.099 1051.750 1483.576 C 1054.912 1483.289, 1062.450 1482.795, 1068.500 1482.479 C 1092.904 1481.205, 1127.830 1476.213, 1155.536 1470.038 C 1172.425 1466.274, 1195.180 1460.126, 1196.349 1459.012 C 1197.954 1457.482, 1184.323 1355.915, 1182.540 1356.119 C 1181.968 1356.185, 1175.875 1357.515, 1169 1359.074 M 687.311 1425.030 C 689.984 1511.677, 714.484 1585.868, 758.629 1641 C 767.261 1651.780, 785.974 1670.472, 797 1679.328 C 843.062 1716.325, 900.907 1738.197, 975.200 1746.709 C 997.469 1749.260, 1067.036 1749.239, 1088.500 1746.675 C 1126.832 1742.095, 1158.768 1734.614, 1187.724 1723.431 C 1261.920 1694.777, 1315.602 1641.274, 1344.821 1566.859 C 1360.523 1526.867, 1368.364 1486.344, 1370.606 1433.604 C 1371.157 1420.649, 1371.040 1417.857, 1369.976 1418.515 C 1305.839 1458.154, 1224.256 1489.056, 1145.717 1503.460 C 1128.258 1506.662, 1099.734 1510.505, 1081 1512.180 C 1058.902 1514.155, 999.776 1513.856, 978 1511.659 C 872.860 1501.052, 784.765 1468.922, 689.590 1406.470 L 686.679 1404.560 687.311 1425.030" stroke="none" fill="#ffffff" fill-rule="evenodd"/><path d="M 245 1.544 C 225.960 5.008, 207.882 12.237, 192.256 22.634 C 181.510 29.783, 166.680 43.943, 158.414 54.943 C 142.340 76.336, 132 106.142, 132 131.086 L 132 139.909 128.750 140.368 C 126.963 140.620, 121.642 141.316, 116.926 141.916 C 58.813 149.306, 11.129 195.954, 1.440 254.892 C -1.032 269.928, -0.137 294.578, 3.392 308.690 C 14.815 354.368, 47.946 390.730, 92 405.940 C 109.511 411.985, 134.970 414.537, 153.319 412.085 C 176.621 408.972, 198.877 400.101, 216.834 386.769 C 222.155 382.818, 222.173 382.813, 224.334 384.746 C 225.525 385.811, 277.012 434.028, 338.750 491.894 L 451 597.106 451 602.803 L 451 608.500 335.308 608.192 C 206.294 607.850, 212.119 607.573, 197.821 614.726 C 184.016 621.632, 173.579 635.309, 169.395 651.974 C 167.143 660.944, 167.906 678.845, 170.952 688.500 C 175.677 703.476, 186.356 716.786, 198.959 723.409 C 212.007 730.266, 205.811 729.969, 336.281 729.985 C 429.649 729.997, 454.133 730.259, 454.402 731.250 C 454.589 731.938, 455.457 738.575, 456.331 746 C 462.306 796.746, 478.463 852.112, 502.346 903.678 C 540.257 985.533, 603.517 1066.999, 678.023 1129.919 C 685.435 1136.178, 691.629 1141.618, 691.786 1142.008 C 691.943 1142.397, 626.819 1203.310, 547.066 1277.370 L 402.061 1412.023 395.069 1406.622 C 348.432 1370.588, 281.524 1369.285, 233.500 1403.475 C 223.308 1410.731, 208.526 1425.327, 201.533 1435.039 C 190.886 1449.827, 183.984 1464.954, 179.216 1483.956 C 176.816 1493.524, 176.567 1496.306, 176.535 1514 C 176.486 1540.967, 179.421 1554.094, 190.506 1576.500 C 203.487 1602.736, 226.958 1625.593, 254.100 1638.430 C 268.436 1645.211, 290.788 1651, 302.631 1651 L 307 1651 307 1658.622 C 307 1678.180, 313.728 1703.768, 323.540 1721.527 C 341.928 1754.808, 373.525 1779.389, 409.500 1788.400 C 442.630 1796.698, 475.938 1792.878, 506.098 1777.320 C 543.074 1758.246, 569.425 1722.900, 577.652 1681.339 C 580.294 1667.994, 580.024 1642.799, 577.092 1629 C 573.497 1612.084, 566.116 1594.434, 556.379 1579.470 C 555.143 1577.571, 558.431 1574.308, 607.529 1528.706 C 653.327 1486.169, 660 1480.317, 660 1482.688 C 660 1487.760, 667.101 1520.256, 671.630 1535.915 C 707.965 1661.521, 796.355 1742.808, 924.500 1768.465 C 979.427 1779.462, 1048.233 1780.959, 1107 1772.435 C 1229.477 1754.669, 1317.392 1694.148, 1364.891 1594.903 C 1380.018 1563.297, 1389.760 1531.058, 1396.692 1489.673 L 1397.500 1484.845 1447.250 1531.524 C 1474.613 1557.198, 1497 1578.639, 1497 1579.171 C 1497 1579.704, 1495.709 1582.021, 1494.130 1584.320 C 1485.713 1596.581, 1477.447 1617.872, 1474.348 1635.276 C 1472.017 1648.369, 1472.231 1670.537, 1474.814 1683.539 C 1485.922 1739.446, 1527.770 1781.341, 1583.246 1792.095 C 1597.292 1794.818, 1621.524 1794.744, 1635.343 1791.936 C 1696.559 1779.495, 1741.777 1727.763, 1744.689 1666.837 L 1745.294 1654.173 1752.397 1653.505 C 1799.324 1649.090, 1840.746 1621.387, 1861.741 1580.375 C 1867.694 1568.749, 1872.049 1556.789, 1874.623 1545 C 1877.264 1532.905, 1877.264 1502.095, 1874.623 1490 C 1862.745 1435.602, 1820.867 1394.340, 1766.339 1383.310 C 1759.759 1381.979, 1753.028 1381.536, 1740 1381.577 C 1724.748 1381.625, 1721.056 1381.970, 1711.253 1384.261 C 1691.484 1388.881, 1674.403 1396.778, 1658.815 1408.504 L 1651.566 1413.958 1649.033 1411.631 C 1642.825 1405.926, 1371.179 1151.407, 1368.500 1148.784 L 1365.500 1145.847 1368.979 1143.174 C 1370.893 1141.703, 1378.993 1135.277, 1386.979 1128.893 C 1483.145 1052.021, 1553.995 950.742, 1592.106 835.665 C 1602.502 804.274, 1611.355 766.115, 1614.706 738.250 L 1616.419 724 1739.528 724 C 1874.163 724, 1866.510 724.317, 1878.494 718.248 C 1886.654 714.116, 1896.044 703.886, 1900.749 694 C 1906.016 682.935, 1907.419 676.693, 1907.380 664.500 C 1907.324 647.477, 1902.326 634.341, 1891.974 624.013 C 1885.196 617.251, 1878.538 613.567, 1868.415 610.978 C 1860.964 609.073, 1857.038 609, 1761.590 608.998 C 1707.091 608.996, 1652.038 608.700, 1639.250 608.338 L 1616 607.681 1616 600.017 L 1616 592.353 1726.097 490.119 C 1833.322 390.551, 1836.250 387.926, 1838.347 389.472 C 1846.735 395.655, 1858.274 402.718, 1865.268 405.949 C 1911.235 427.186, 1964.834 421.659, 2004.786 391.564 C 2027.003 374.828, 2044.343 350.803, 2052.873 324.939 C 2057.401 311.212, 2059.084 299.500, 2059.474 279 C 2059.679 268.275, 2059.594 260.850, 2059.287 262.500 C 2058.840 264.898, 2058.450 263.905, 2057.340 257.555 C 2050.683 219.451, 2025.615 184.216, 1990.625 163.781 C 1976.020 155.251, 1956.659 148.971, 1938.434 146.853 L 1928.286 145.673 1927.709 132.587 C 1924.969 70.435, 1877.291 17.288, 1814.619 6.525 C 1803.177 4.560, 1781.197 4.571, 1769 6.548 C 1733.179 12.353, 1698.839 34.566, 1678.429 65.135 C 1649.386 108.634, 1647.875 166.088, 1674.605 210.500 C 1677.584 215.450, 1680.575 220.284, 1681.250 221.241 C 1682.290 222.715, 1682.020 223.430, 1679.489 225.897 C 1668.608 236.505, 1530.627 364, 1530.028 364 C 1529.618 364, 1527.610 361.480, 1525.565 358.400 C 1523.520 355.321, 1516.863 346.208, 1510.771 338.150 C 1415.660 212.350, 1280.839 128.843, 1132.802 104.041 C 1094.116 97.559, 1065.141 95.552, 1021 96.295 C 978.413 97.012, 945.168 100.327, 907.547 107.606 C 756.799 136.775, 627.627 223.206, 541.110 352.793 L 532.903 365.087 516.686 349.793 C 507.767 341.382, 472.696 308.461, 438.749 276.636 C 400.276 240.566, 377.306 218.344, 377.764 217.636 C 378.169 217.011, 380.180 213.946, 382.234 210.824 C 392.541 195.152, 399.923 175.864, 403.024 156.500 C 404.653 146.328, 404.377 123.107, 402.500 112.500 C 399.325 94.549, 391.193 74.617, 380.675 59.008 C 374.075 49.212, 358.073 32.814, 348.127 25.653 C 331.497 13.679, 310.891 4.996, 291.074 1.610 C 279.547 -0.359, 255.647 -0.393, 245 1.544 M 251.835 32.473 C 210.517 39.246, 177.109 69.756, 166.372 110.523 C 162.688 124.511, 162.506 143.128, 165.874 161.293 C 167.179 168.330, 168.079 174.232, 167.873 174.410 C 167.668 174.588, 162.100 174.082, 155.500 173.286 C 125.531 169.669, 100.685 174.814, 78.836 189.161 C 53.306 205.925, 36.319 232.905, 32.072 263.434 C 30.638 273.751, 30.729 280.633, 32.452 292 C 36.084 315.962, 46.443 335.629, 64.454 352.753 C 78.870 366.460, 95.581 375.240, 115.500 379.573 C 127.968 382.285, 147.850 381.898, 160.074 378.705 C 181.369 373.143, 194.687 365.465, 211.204 349.228 L 221.908 338.706 229.776 346.103 C 336.683 446.606, 455.283 557.449, 455.736 557.284 C 456.063 557.165, 457.642 550.640, 459.247 542.784 C 468.129 499.305, 488.812 444.176, 512.296 401.382 L 516.751 393.264 426.626 308.740 C 377.057 262.251, 335.657 223.283, 334.628 222.144 C 332.772 220.090, 332.838 219.985, 342.128 210.108 C 347.282 204.628, 353.939 196.250, 356.919 191.491 C 382.788 150.188, 376.476 96.085, 341.790 61.806 C 322.914 43.153, 298.504 32.548, 272.045 31.507 C 264.667 31.216, 257.373 31.565, 251.835 32.473 M 1777.500 37.038 C 1723.520 45.450, 1684.881 91.919, 1687.313 145.500 C 1688.529 172.295, 1698.538 194.872, 1718.492 215.826 C 1723.466 221.050, 1726.928 225.449, 1726.362 225.826 C 1723.257 227.897, 1547.074 392.318, 1547.384 392.855 C 1578.238 446.211, 1598.256 495.327, 1608.069 541.750 C 1609.377 547.938, 1610.749 553, 1611.118 553 C 1611.487 553, 1625.228 540.513, 1641.654 525.250 C 1658.079 509.988, 1708.716 462.978, 1754.180 420.783 L 1836.841 344.067 1844.671 352.116 C 1867.509 375.596, 1893.109 387, 1922.978 387 C 1971.025 387, 2012.145 355.161, 2024.741 308.206 C 2027.033 299.662, 2027.345 296.585, 2027.345 282.500 C 2027.345 268.415, 2027.033 265.338, 2024.741 256.794 C 2019.713 238.048, 2011.677 223.871, 1998.011 209.634 C 1974.447 185.085, 1945.253 174.984, 1908.196 178.558 C 1900.113 179.338, 1893.013 179.981, 1892.419 179.988 C 1891.710 179.996, 1892.129 175.773, 1893.633 167.750 C 1896.940 150.108, 1897.506 138.525, 1895.649 126.500 C 1889.020 83.576, 1858.812 50.026, 1817.206 39.379 C 1806.237 36.571, 1787.559 35.471, 1777.500 37.038 M 989.500 128.086 C 871.797 135.897, 769.594 176.297, 680.945 250.055 C 664.686 263.582, 629.274 299.039, 615.583 315.500 C 587.018 349.843, 563.250 385.561, 546.377 419.500 L 538.920 434.500 1031.626 434.751 C 1302.614 434.889, 1524.585 434.748, 1524.896 434.437 C 1526.488 432.845, 1502.959 390.800, 1487.982 368.474 C 1454.017 317.844, 1407.364 268.476, 1359.500 232.514 C 1276.298 170.002, 1179.861 135.252, 1069.500 128.015 C 1052.196 126.880, 1007.066 126.920, 989.500 128.086 M 0.405 276.500 C 0.406 285.300, 0.559 288.766, 0.745 284.203 C 0.930 279.639, 0.929 272.439, 0.742 268.203 C 0.555 263.966, 0.404 267.700, 0.405 276.500 M 744.322 273.613 C 740.545 275.476, 713.798 302.549, 702.482 315.963 C 691.105 329.451, 673.736 352.920, 665.126 366.438 C 655.010 382.322, 654.456 388.803, 662.602 395.955 C 666.642 399.503, 671.863 400.657, 676.959 399.130 C 681.962 397.631, 684.395 395.027, 691.458 383.610 C 705.273 361.278, 732.459 327.726, 753.531 307 C 759.402 301.225, 764.885 295.188, 765.714 293.584 C 767.712 289.722, 766.954 282.148, 764.179 278.251 C 760.039 272.437, 750.991 270.324, 744.322 273.613 M 1332.207 293.669 C 1328.284 295.602, 1324 302.443, 1324 306.773 C 1324 311.969, 1325.787 315.055, 1333.423 323.048 C 1357.649 348.405, 1377.630 382.761, 1384.984 411.705 C 1386.919 419.317, 1393.683 425, 1400.811 425 C 1405.233 425, 1412.043 420.909, 1414.145 416.991 C 1416.901 411.851, 1416.433 406.520, 1412.066 393.358 C 1403.347 367.072, 1391.893 345.656, 1373.747 321.705 C 1365.527 310.855, 1350.141 294.971, 1346.282 293.351 C 1341.991 291.550, 1336.243 291.679, 1332.207 293.669 M 805.305 312.468 C 799.743 314.887, 778.168 343.795, 765.727 365.500 C 758.564 377.997, 750.007 396.126, 749.352 400.194 C 748.448 405.805, 749.752 410.598, 753.091 413.937 C 758.852 419.698, 768.010 420.387, 773.822 415.496 C 775.580 414.017, 779.854 406.720, 784.781 396.786 C 793.557 379.089, 806.627 358.417, 817.522 345 C 828.641 331.307, 830.180 326.360, 825.734 318.604 C 821.816 311.771, 812.999 309.122, 805.305 312.468 M 1248.500 331.964 C 1243.391 334.103, 1239 341, 1239 346.885 C 1239 348.507, 1240.580 352.812, 1242.511 356.453 C 1250.534 371.574, 1257.261 389.586, 1259.995 403.260 C 1261.805 412.317, 1267.979 418, 1276.008 418 C 1280.554 418, 1286.495 414.553, 1289.037 410.441 C 1290.994 407.273, 1291.203 405.921, 1290.705 399.659 C 1289.992 390.720, 1285.579 375.865, 1279.039 360.390 C 1269.257 337.245, 1264.110 330.939, 1255.102 331.063 C 1252.571 331.098, 1249.600 331.504, 1248.500 331.964 M 872.435 340.877 C 868.974 342.987, 865.631 347.045, 858.153 358.213 C 849.314 371.414, 845 380.467, 845 385.813 C 845 399.909, 860.694 407.116, 870.851 397.683 C 872.144 396.483, 874.790 392.350, 876.729 388.500 C 878.669 384.650, 883.011 377.556, 886.378 372.736 C 894.313 361.377, 895.997 358.169, 895.998 354.407 C 896.001 349.793, 891.986 342.998, 887.991 340.855 C 883.516 338.456, 876.389 338.466, 872.435 340.877 M 519.328 469.750 C 501.330 510.140, 488.851 557.346, 487.298 590.916 L 486.677 604.333 809.505 603.666 C 987.060 603.300, 1232.833 603, 1355.666 603 L 1579 603 1579 594.051 C 1579 562.737, 1565.831 511.112, 1547.930 472.250 L 1544.129 464 1033.010 464 L 521.890 464 519.328 469.750 M 220.388 638.250 C 210.399 644.959, 203.251 660.083, 204.241 672.414 C 205.160 683.868, 211.402 694.028, 220.218 698.421 L 225.393 701 1040.491 701 L 1855.588 701 1861.028 697.750 C 1871.149 691.702, 1878.025 677.381, 1876.606 665.307 C 1875.211 653.435, 1867.731 641.454, 1858.902 636.950 C 1855.121 635.021, 1846.171 635, 1040.153 635 L 225.226 635 220.388 638.250 M 488 731.870 C 488 738.251, 497 779.620, 503.039 801 C 541.087 935.690, 617.193 1045.804, 719 1113.466 C 788.825 1159.872, 864.095 1185.748, 959.500 1196.144 C 978.285 1198.191, 985.457 1198.436, 1027.500 1198.466 C 1077.025 1198.502, 1086.843 1197.969, 1121 1193.391 C 1266.752 1173.857, 1382.987 1107.116, 1468.497 993.861 C 1512.130 936.072, 1546.098 866.236, 1568.026 789.238 C 1572.431 773.768, 1578.708 746.614, 1580.504 735.250 L 1581.176 731 1034.588 731 C 725.085 731, 488 731.378, 488 731.870 M 794 762.035 C 770.897 764.865, 749.944 772.647, 730.117 785.760 C 719.560 792.742, 703.734 807.868, 695.483 818.861 C 683.155 835.287, 673.104 858.420, 669.354 879 C 666.744 893.324, 666.958 917.277, 669.825 931.728 C 682.190 994.063, 731.609 1046.857, 789.066 1059.113 C 797.190 1060.846, 802.821 1061.341, 814.500 1061.351 C 838.454 1061.371, 856.334 1057.073, 878.500 1045.968 C 922.137 1024.105, 953.742 983.947, 963.738 937.659 C 965.097 931.364, 965.479 925.160, 965.410 910.500 C 965.325 892.655, 965.134 890.801, 962.270 880 C 947.018 822.480, 895.447 774.916, 836 763.544 C 825.628 761.560, 804.173 760.789, 794 762.035 M 1225 765.960 C 1164.679 776.985, 1118.066 822.061, 1106.316 880.730 C 1103.739 893.596, 1104.010 923.348, 1106.848 939.178 C 1112.638 971.475, 1125.736 996.943, 1147.102 1017.451 C 1163.511 1033.201, 1182.886 1044.333, 1206.097 1051.346 C 1225.853 1057.315, 1234.617 1058.456, 1260.500 1058.427 C 1282.179 1058.403, 1284.058 1058.250, 1293.221 1055.766 C 1333.380 1044.877, 1364.172 1018.958, 1383.827 979.500 C 1402.315 942.382, 1406.147 898.190, 1394.014 862 C 1380.563 821.878, 1346.381 787.524, 1305 772.537 C 1288.430 766.536, 1278.179 764.839, 1256 764.424 C 1238.920 764.105, 1233.748 764.361, 1225 765.960 M 1017.280 1056.921 C 1001.859 1060.711, 986.904 1071.365, 981.499 1082.412 C 967.151 1111.738, 994.068 1142, 1034.500 1142 C 1075.284 1142, 1102.842 1110.478, 1087.226 1081.689 C 1080.965 1070.148, 1065.687 1059.771, 1050.185 1056.530 C 1040.597 1054.525, 1026.341 1054.695, 1017.280 1056.921 M 741.620 1174.250 C 733.166 1187.480, 724.284 1207.929, 716.755 1231.500 C 710.098 1252.342, 710.097 1250.115, 716.764 1254.562 C 737.940 1268.687, 771.262 1286.499, 798.500 1298.253 C 814.096 1304.982, 838.940 1314.457, 839.397 1313.849 C 839.542 1313.657, 841.826 1300.450, 844.474 1284.500 C 847.122 1268.550, 851.228 1245.827, 853.598 1234.003 C 855.968 1222.180, 857.590 1212.236, 857.203 1211.906 C 856.817 1211.575, 852 1210.054, 846.500 1208.527 C 820.193 1201.219, 782.514 1186.787, 759.100 1175.050 C 752.462 1171.723, 746.568 1169, 746.003 1169 C 745.438 1169, 743.465 1171.362, 741.620 1174.250 M 1347 1172.446 C 1347 1172.699, 1349.090 1177.989, 1351.644 1184.203 C 1365.804 1218.650, 1377.330 1257.012, 1385.385 1296.500 C 1393.870 1338.095, 1398.269 1376.647, 1399.622 1421.267 L 1400.313 1444.034 1468.906 1508.385 C 1506.633 1543.778, 1538.341 1573.677, 1539.368 1574.827 C 1541.218 1576.899, 1541.172 1576.988, 1534.532 1584.209 C 1521.607 1598.265, 1513.666 1611.572, 1508.677 1627.541 C 1491.020 1684.055, 1525.145 1744.812, 1582.881 1759.655 C 1635.975 1773.304, 1690.848 1743.179, 1708.460 1690.713 C 1714.433 1672.920, 1715.119 1656.403, 1710.869 1632.725 C 1709.704 1626.230, 1709.030 1620.637, 1709.372 1620.295 C 1709.714 1619.953, 1714.832 1620.197, 1720.747 1620.838 C 1755.581 1624.611, 1780.323 1618.720, 1803.737 1601.077 C 1827.383 1583.260, 1841.587 1558.058, 1845.122 1527.653 C 1847.764 1504.924, 1841.412 1479.721, 1827.820 1459 C 1822.412 1450.756, 1808.387 1436.581, 1800.206 1431.090 C 1791.670 1425.361, 1779.349 1419.628, 1768.500 1416.339 C 1760.176 1413.815, 1758.149 1413.606, 1741.500 1413.555 C 1725.678 1413.507, 1722.471 1413.781, 1715 1415.819 C 1694.397 1421.439, 1679.743 1430.326, 1663.698 1446.934 C 1657.818 1453.020, 1652.756 1458, 1652.449 1458 C 1651.923 1458, 1628.790 1436.354, 1427.750 1247.744 C 1383.338 1206.078, 1347 1172.194, 1347 1172.446 M 1300.500 1176.944 C 1275.232 1188.859, 1226.855 1206.002, 1198.270 1213.171 C 1190.066 1215.229, 1189.839 1215.365, 1190.387 1217.895 C 1193.096 1230.392, 1199.702 1266.919, 1203.655 1291.261 C 1206.766 1310.419, 1208.898 1321, 1209.646 1321 C 1211.814 1321, 1239.422 1311.826, 1255.477 1305.771 C 1280.818 1296.213, 1295.805 1289.716, 1321.226 1277.270 C 1344.228 1266.008, 1344.932 1265.575, 1344.331 1263.077 C 1343.110 1258.006, 1332.131 1225.294, 1328.028 1214.500 C 1321.021 1196.070, 1310.750 1172.995, 1309.593 1173.086 C 1308.992 1173.134, 1304.900 1174.870, 1300.500 1176.944 M 561 1307.688 C 483.725 1379.445, 416.091 1442.230, 410.703 1447.211 L 400.905 1456.266 388.695 1443.883 C 379.753 1434.815, 374.122 1430.049, 367.661 1426.081 C 341.570 1410.054, 311.761 1406.049, 282.241 1414.603 C 230.743 1429.527, 198.426 1483.357, 209.464 1535.829 C 213.976 1557.278, 223.721 1574.725, 239.829 1590.194 C 257.814 1607.465, 276.931 1616.372, 302.041 1619.177 C 310.839 1620.160, 315.131 1620.085, 328.007 1618.727 C 336.491 1617.832, 343.522 1617.189, 343.630 1617.300 C 343.739 1617.410, 342.958 1622.225, 341.893 1628 C 338.727 1645.181, 337.968 1655.481, 339.075 1666.267 C 344.409 1718.239, 386.434 1758.313, 438.131 1760.723 C 467.784 1762.105, 493.980 1752.386, 515.263 1732.107 C 528.894 1719.119, 537.937 1704.731, 543.301 1687.500 C 547.207 1674.950, 548.356 1665.491, 547.705 1651.218 C 546.517 1625.134, 537.495 1604.054, 518.603 1583.217 C 514.971 1579.211, 512 1575.530, 512 1575.037 C 512 1574.544, 544.329 1544.124, 583.842 1507.438 L 655.684 1440.737 656.336 1413.118 C 658.422 1324.620, 671.767 1250.720, 696.433 1191.072 C 699.486 1183.690, 701.875 1177.554, 701.742 1177.436 C 701.609 1177.318, 638.275 1235.931, 561 1307.688 M 884.548 1220.250 C 884.229 1221.272, 878.353 1257.887, 869.583 1313.500 C 868.803 1318.450, 868.465 1322.815, 868.832 1323.199 C 870.912 1325.375, 922.946 1337.071, 945.559 1340.444 C 966.193 1343.522, 1002.762 1346.957, 1015.250 1346.990 L 1019 1347 1019 1291.172 L 1019 1235.344 997.750 1234.173 C 963.728 1232.297, 927.663 1227.692, 898 1221.436 C 884.558 1218.601, 885.048 1218.644, 884.548 1220.250 M 1157.917 1222.417 C 1157.022 1223.312, 1120.486 1229.007, 1103.463 1230.905 C 1087.021 1232.738, 1057.142 1234.994, 1049.250 1234.998 L 1046 1235 1046 1291.145 L 1046 1347.290 1060.750 1346.589 C 1086.413 1345.370, 1113.802 1342.320, 1139 1337.874 C 1151.008 1335.755, 1178.055 1330.056, 1179.110 1329.422 C 1179.445 1329.220, 1179.115 1325.105, 1178.376 1320.278 C 1172.912 1284.573, 1163.902 1227.008, 1163.424 1224.750 C 1162.997 1222.736, 1162.238 1222, 1160.587 1222 C 1159.348 1222, 1158.146 1222.188, 1157.917 1222.417 M 703.604 1281.791 C 699.689 1295.043, 689.797 1364.422, 691.274 1368.271 C 692.038 1370.261, 719.280 1388.348, 740.500 1400.952 C 764.229 1415.047, 818.991 1442.368, 820.474 1440.851 C 820.833 1440.484, 834.009 1350.299, 834.321 1346.076 C 834.486 1343.837, 833.435 1343.260, 820.500 1338.495 C 785.034 1325.428, 740.850 1303.633, 710.873 1284.419 C 705.100 1280.718, 704.035 1280.333, 703.604 1281.791 M 1350.411 1294.989 C 1348.472 1296.928, 1310.742 1314.077, 1292.221 1321.438 C 1272.342 1329.339, 1243.055 1339.499, 1224.250 1345.020 C 1218.063 1346.836, 1213 1348.768, 1213 1349.314 C 1213 1349.860, 1216.150 1372.539, 1220 1399.712 C 1223.850 1426.885, 1227 1449.270, 1227 1449.456 C 1227 1449.970, 1243.475 1443.734, 1258.801 1437.418 C 1276.522 1430.116, 1311.078 1413.172, 1326.987 1403.984 C 1336.691 1398.380, 1361.867 1382.328, 1366.186 1378.991 C 1368.470 1377.227, 1354.634 1294, 1352.057 1294 C 1351.696 1294, 1350.955 1294.445, 1350.411 1294.989 M 858.202 1389.750 C 852.661 1429.042, 849.727 1452.072, 850.205 1452.519 C 850.367 1452.670, 857.700 1455.105, 866.500 1457.930 C 898.449 1468.185, 937.651 1476.634, 971 1480.451 C 983.661 1481.900, 1010.107 1483.968, 1016.259 1483.990 L 1019.017 1484 1018.759 1429.250 L 1018.500 1374.500 1001.185 1373.843 C 960.619 1372.303, 922.340 1366.991, 883.139 1357.463 C 873.040 1355.008, 864.464 1353, 864.081 1353 C 863.698 1353, 861.052 1369.537, 858.202 1389.750 M 1172.500 1358.091 C 1140.451 1365.501, 1096.483 1371.461, 1058.250 1373.578 L 1046 1374.257 1046 1429.227 L 1046 1484.197 1057.750 1483.534 C 1105.011 1480.867, 1140.058 1474.977, 1193.250 1460.759 C 1196.415 1459.913, 1197 1459.334, 1197 1457.046 C 1197 1453.143, 1192.698 1419.065, 1188.031 1386 C 1185.819 1370.325, 1184.007 1357.162, 1184.004 1356.750 C 1183.998 1355.698, 1181.685 1355.967, 1172.500 1358.091 M 686.562 1408.750 C 686.766 1410.813, 687.161 1420.600, 687.440 1430.500 C 689.337 1497.783, 707.617 1562.977, 738.659 1613.172 C 752.998 1636.358, 777.554 1664.167, 798 1680.373 C 824.492 1701.371, 856.629 1718.327, 891.116 1729.502 C 956.312 1750.629, 1043.280 1755.584, 1118.820 1742.475 C 1175.622 1732.618, 1224.834 1711.476, 1263.500 1680.317 C 1276.187 1670.093, 1297.323 1648.322, 1306.842 1635.672 C 1340.589 1590.827, 1361.584 1533.901, 1368.497 1468.500 C 1369.985 1454.421, 1371.698 1418, 1370.871 1418 C 1370.628 1418, 1364.369 1421.614, 1356.964 1426.032 C 1321.871 1446.967, 1267.524 1470.516, 1222.396 1484.341 C 1076.152 1529.145, 930.069 1522.579, 797.500 1465.245 C 763.631 1450.597, 722.537 1428.246, 693.805 1408.846 C 690.673 1406.730, 687.678 1405, 687.150 1405 C 686.622 1405, 686.357 1406.688, 686.562 1408.750" stroke="none" fill="#000000" fill-rule="evenodd"/><path d="M 519.328 469.750 C 501.330 510.140, 488.851 557.346, 487.298 590.916 L 486.677 604.333 809.505 603.666 C 987.060 603.300, 1232.833 603, 1355.666 603 L 1579 603 1579 594.051 C 1579 562.737, 1565.831 511.112, 1547.930 472.250 L 1544.129 464 1033.010 464 L 521.890 464 519.328 469.750" stroke="none" fill="#ff0012" fill-rule="evenodd"/><path d="M 989.500 128.086 C 871.797 135.897, 769.594 176.297, 680.945 250.055 C 664.686 263.582, 629.274 299.039, 615.583 315.500 C 587.018 349.843, 563.250 385.561, 546.377 419.500 L 538.920 434.500 1031.626 434.751 C 1302.614 434.889, 1524.585 434.748, 1524.896 434.437 C 1526.488 432.845, 1502.959 390.800, 1487.982 368.474 C 1454.017 317.844, 1407.364 268.476, 1359.500 232.514 C 1276.298 170.002, 1179.861 135.252, 1069.500 128.015 C 1052.196 126.880, 1007.066 126.920, 989.500 128.086 M 744.322 273.613 C 740.545 275.476, 713.798 302.549, 702.482 315.963 C 691.105 329.451, 673.736 352.920, 665.126 366.438 C 655.010 382.322, 654.456 388.803, 662.602 395.955 C 666.642 399.503, 671.863 400.657, 676.959 399.130 C 681.962 397.631, 684.395 395.027, 691.458 383.610 C 705.273 361.278, 732.459 327.726, 753.531 307 C 759.402 301.225, 764.885 295.188, 765.714 293.584 C 767.712 289.722, 766.954 282.148, 764.179 278.251 C 760.039 272.437, 750.991 270.324, 744.322 273.613 M 1332.207 293.669 C 1328.284 295.602, 1324 302.443, 1324 306.773 C 1324 311.969, 1325.787 315.055, 1333.423 323.048 C 1357.649 348.405, 1377.630 382.761, 1384.984 411.705 C 1386.919 419.317, 1393.683 425, 1400.811 425 C 1405.233 425, 1412.043 420.909, 1414.145 416.991 C 1416.901 411.851, 1416.433 406.520, 1412.066 393.358 C 1403.347 367.072, 1391.893 345.656, 1373.747 321.705 C 1365.527 310.855, 1350.141 294.971, 1346.282 293.351 C 1341.991 291.550, 1336.243 291.679, 1332.207 293.669 M 805.305 312.468 C 799.743 314.887, 778.168 343.795, 765.727 365.500 C 758.564 377.997, 750.007 396.126, 749.352 400.194 C 748.448 405.805, 749.752 410.598, 753.091 413.937 C 758.852 419.698, 768.010 420.387, 773.822 415.496 C 775.580 414.017, 779.854 406.720, 784.781 396.786 C 793.557 379.089, 806.627 358.417, 817.522 345 C 828.641 331.307, 830.180 326.360, 825.734 318.604 C 821.816 311.771, 812.999 309.122, 805.305 312.468 M 1248.500 331.964 C 1243.391 334.103, 1239 341, 1239 346.885 C 1239 348.507, 1240.580 352.812, 1242.511 356.453 C 1250.534 371.574, 1257.261 389.586, 1259.995 403.260 C 1261.805 412.317, 1267.979 418, 1276.008 418 C 1280.554 418, 1286.495 414.553, 1289.037 410.441 C 1290.994 407.273, 1291.203 405.921, 1290.705 399.659 C 1289.992 390.720, 1285.579 375.865, 1279.039 360.390 C 1269.257 337.245, 1264.110 330.939, 1255.102 331.063 C 1252.571 331.098, 1249.600 331.504, 1248.500 331.964 M 872.435 340.877 C 868.974 342.987, 865.631 347.045, 858.153 358.213 C 849.314 371.414, 845 380.467, 845 385.813 C 845 399.909, 860.694 407.116, 870.851 397.683 C 872.144 396.483, 874.790 392.350, 876.729 388.500 C 878.669 384.650, 883.011 377.556, 886.378 372.736 C 894.313 361.377, 895.997 358.169, 895.998 354.407 C 896.001 349.793, 891.986 342.998, 887.991 340.855 C 883.516 338.456, 876.389 338.466, 872.435 340.877 M 220.388 638.250 C 210.399 644.959, 203.251 660.083, 204.241 672.414 C 205.160 683.868, 211.402 694.028, 220.218 698.421 L 225.393 701 1040.491 701 L 1855.588 701 1861.028 697.750 C 1871.149 691.702, 1878.025 677.381, 1876.606 665.307 C 1875.211 653.435, 1867.731 641.454, 1858.902 636.950 C 1855.121 635.021, 1846.171 635, 1040.153 635 L 225.226 635 220.388 638.250 M 1023.797 1749.745 C 1028.361 1749.930, 1035.561 1749.929, 1039.797 1749.742 C 1044.034 1749.555, 1040.300 1749.404, 1031.500 1749.405 C 1022.700 1749.406, 1019.234 1749.559, 1023.797 1749.745" stroke="none" fill="#ffd01f" fill-rule="evenodd"/></svg>